<?xml version="1.0" encoding="UTF-8" standalone="no"?>
<svg width="500px" height="1081px" viewBox="0 0 500 1081" version="1.1" xmlns="http://www.w3.org/2000/svg" xmlns:xlink="http://www.w3.org/1999/xlink" xmlns:sketch="http://www.bohemiancoding.com/sketch/ns">
    <!-- Generator: Sketch 3.5.1 (25234) - http://www.bohemiancoding.com/sketch -->
    <title>background</title>
    <desc>Created with Sketch.</desc>
    <defs>
        <path id="path-1" d="M109.845,103.077 L203.283,103.077 L203.283,37.819 L109.845,37.819 L109.845,103.077"></path>
    </defs>
    <g id="Page-1" stroke="none" stroke-width="1" fill="none" fill-rule="evenodd" sketch:type="MSPage">
        <g id="background" sketch:type="MSLayerGroup">
            <path d="M0,1081 L500,1081 L500,81 L0,81 L0,1081 Z" id="Fill-1" fill="#F7F6F2" sketch:type="MSShapeGroup"></path>
            <g id="logo" transform="translate(148.000000, 0.000000)">
                <mask id="mask-2" sketch:name="Clip 5" fill="white">
                    <use xlink:href="#path-1"></use>
                </mask>
                <g id="Clip-5"></g>
                <path d="M203.284,103.0765 L195.214,103.0765 L173.087,103.0765 C176.081,102.5555 178.425,99.0415 178.425,95.9175 L178.425,92.2735 L178.425,57.5205 C178.425,50.8835 185.192,49.1915 185.192,44.3755 C185.192,41.5115 181.418,38.9095 176.341,38.9095 C170.875,38.9095 166.06,40.8615 164.367,41.6425 C176.472,35.7855 197.947,34.0935 197.947,55.6995 L197.947,92.2735 L197.947,95.9175 C197.947,99.0415 200.29,102.5555 203.284,103.0765 M169.053,103.0765 L160.983,103.0765 L138.857,103.0765 C141.85,102.5555 144.192,99.0415 144.192,95.9175 L144.192,92.2735 L144.192,57.5205 C144.192,50.8835 150.961,49.1915 150.961,44.3755 C150.961,41.5115 147.316,38.9095 142.111,38.9095 C136.644,38.9095 131.828,40.8615 130.136,41.6425 C138.26,37.7115 150.606,35.6565 157.847,41.2625 C161.395,44.0085 163.717,48.5935 163.717,55.6995 L163.717,92.2735 L163.717,95.9175 C163.717,99.0415 166.06,102.5555 169.053,103.0765 M129.485,41.3815 L129.485,55.4665 L129.485,57.9125 L129.485,65.0705 L129.486,87.9625 C123.283,83.5555 121.248,81.0985 121.248,81.0985 L109.845,81.0985 L109.962,65.0705 L109.962,62.0085 L109.962,58.4325" id="Fill-4" fill="#2C4140" sketch:type="MSShapeGroup"></path>
                <path d="M121.5629,81.5396 C110.9829,70.8346 87.8829,40.7256 87.8829,40.7256 C87.8799,40.7226 87.8769,40.7186 87.8749,40.7156 L86.6899,39.2246 L86.6779,39.1076 C83.0269,33.9946 76.9599,23.7976 75.1059,18.9196 C74.4549,16.3166 74.1949,13.5846 74.8459,10.7206 C75.7249,7.0046 78.9729,2.1516 82.6829,0.8366 L82.6539,0.5676 C60.0079,1.0886 52.6999,20.6516 65.9949,41.8276 C66.7839,43.0846 69.2489,47.6846 69.2489,47.6846 C67.6879,48.3356 66.3859,48.8556 64.9539,49.5066 C59.3569,52.3706 54.5409,54.7886 48.6849,60.6466 C42.1459,67.1846 39.5609,75.3236 40.3989,81.5396 L64.5909,81.4146 C64.5909,81.4146 53.5019,63.7426 71.2009,49.5066 C71.2009,49.5066 93.8849,80.5536 94.1219,81.0976 L121.5629,81.5396 Z" id="Fill-13" fill="#D3BDBA" sketch:type="MSShapeGroup"></path>
                <path d="M129.4141,41.2947 C129.4141,39.9927 128.5031,39.0827 127.2011,39.0827 L126.8111,39.0827 L104.5551,42.3367 C107.8081,43.4967 109.6091,45.7417 109.8911,49.4947 L109.8901,62.0087" id="Fill-16" fill="#D3BDBA" sketch:type="MSShapeGroup"></path>
                <path d="M34.187,38.4615 C48.507,39.3375 58.539,49.6885 61.488,63.3395 L45.979,63.2595 L39.802,63.2595 L38.96,63.2595 C41.066,63.2595 42.891,61.7565 42.891,59.8775 C42.891,49.8585 39.1,40.3415 34.187,38.4615 L34.187,38.4615 Z M50.335,96.7985 C44.891,99.9495 38.282,101.8335 32.361,101.8335 C14.673,101.8335 0.354,87.6815 0.354,70.1475 C0.354,52.6135 14.673,38.4615 32.361,38.4615 C28.571,39.0885 21.411,50.1095 21.411,63.5105 C21.411,80.2915 31.801,93.8175 44.576,93.8175 C45.216,93.8175 45.892,93.7635 46.591,93.6615 L50.335,96.7985 Z" id="Fill-20" fill="#2C4140" sketch:type="MSShapeGroup"></path>
                <path d="M94.1953,81.231 L105.5883,94.752 C110.8763,100.085 114.4293,101.467 117.8083,102.244 C126.7733,103.797 133.4013,100.949 138.9873,94.863 C139.2733,94.499 139.5363,94.126 139.8033,93.757 C138.1433,94.296 127.1623,86.444 125.2153,84.893 C123.8733,83.835 123.0863,83.178 121.5913,81.67" id="Fill-29" fill="#D8117D" sketch:type="MSShapeGroup"></path>
                <path d="M40.5634,81.6698 C43.1864,101.0958 75.4504,113.6608 95.2694,86.2088 C94.9804,86.5838 94.6994,86.9208 94.5134,87.0938 C92.1314,89.3168 85.4374,91.4428 82.1164,91.5868 C74.1764,91.4288 70.0734,87.7688 68.3104,86.0238 C68.0514,85.8538 66.5834,84.2558 66.4504,84.0888 C66.2324,83.8528 64.7864,81.7588 64.7154,81.5458" id="Fill-31" fill="#D8117D" sketch:type="MSShapeGroup"></path>
            </g>
            <path d="M198.479,126.762 L198.479,122.99 L203.224,122.99 L203.224,122.55 L198.479,122.55 L198.479,118.505 L204.03,118.505 L204.03,118.052 L198,118.052 L198,127.215 L204.303,127.215 L204.303,126.762 L198.479,126.762 Z M211.252,126.41 L207.378,118.052 L206.845,118.052 L211.109,127.215 L211.395,127.215 L215.659,118.052 L215.139,118.052 L211.252,126.41 Z M224.812,127.215 L225.319,127.215 L221.198,118.052 L220.834,118.052 L216.7,127.215 L217.22,127.215 L218.39,124.563 L223.629,124.563 L224.812,127.215 Z M221.003,118.637 L223.46,124.149 L218.572,124.149 L221.003,118.637 Z M240.424,123.316 C240.125,123.771 239.553,124.695 238.799,125.449 L236.005,122.744 C238.073,122.042 238.448,120.95 238.448,120.092 C238.448,119.025 237.592,118.052 236.148,118.052 C234.835,118.052 233.965,119.077 233.965,120.157 C233.965,121.119 234.431,121.769 235.251,122.588 C233.678,123.199 233.12,124.005 233.12,125.02 C233.12,126.164 234.03,127.254 236.213,127.254 C237.202,127.254 238.073,126.723 238.799,126.047 L240.047,127.241 L240.346,126.944 L239.098,125.748 C239.917,124.903 240.515,123.94 240.788,123.498 L240.424,123.316 Z M236.148,118.466 C237.436,118.466 238.008,119.286 238.008,120.144 C238.008,120.976 237.579,121.782 235.68,122.432 C234.913,121.652 234.405,121.08 234.405,120.17 C234.405,119.325 235.082,118.466 236.148,118.466 L236.148,118.466 Z M236.213,126.814 C234.353,126.814 233.612,125.904 233.612,125.007 C233.612,124.174 234.133,123.459 235.563,122.913 L238.5,125.748 C237.852,126.359 237.072,126.814 236.213,126.814 L236.213,126.814 Z M257.806,118.052 L253.685,124.785 L249.564,118.052 L249.24,118.052 L249.24,127.215 L249.719,127.215 L249.719,119.17 L253.685,125.669 L257.638,119.17 L257.638,127.215 L258.117,127.215 L258.117,118.052 L257.806,118.052 Z M262.524,118.052 L262.045,118.052 L262.045,127.215 L262.524,127.215 L262.524,118.052 Z M270.675,126.788 C268.309,126.788 266.385,124.942 266.385,122.64 C266.385,120.339 268.309,118.479 270.675,118.479 C272.04,118.479 273.249,119.116 274.029,120.066 L274.406,119.741 C273.522,118.687 272.183,118 270.675,118 C268.036,118 265.88,120.092 265.88,122.64 C265.88,125.189 268.036,127.267 270.675,127.267 C272.183,127.267 273.522,126.593 274.406,125.54 L274.029,125.215 C273.249,126.164 272.04,126.788 270.675,126.788 L270.675,126.788 Z M278.095,126.762 L278.095,122.99 L282.84,122.99 L282.84,122.55 L278.095,122.55 L278.095,118.505 L283.646,118.505 L283.646,118.052 L277.616,118.052 L277.616,127.215 L283.919,127.215 L283.919,126.762 L278.095,126.762 Z M287.416,126.775 L287.416,118.052 L286.937,118.052 L286.937,127.215 L292.811,127.215 L292.811,126.775 L287.416,126.775 Z M296.236,126.762 L296.236,122.99 L300.981,122.99 L300.981,122.55 L296.236,122.55 L296.236,118.505 L301.787,118.505 L301.787,118.052 L295.757,118.052 L295.757,127.215 L302.06,127.215 L302.06,126.762 L296.236,126.762 Z" id="eva&amp;micele" fill="#776C6A" sketch:type="MSShapeGroup"></path>
        </g>
    </g>
</svg>