<?xml version="1.0" encoding="UTF-8" standalone="no"?>
<svg width="66px" height="8px" viewBox="0 0 66 8" version="1.1" xmlns="http://www.w3.org/2000/svg" xmlns:xlink="http://www.w3.org/1999/xlink" xmlns:sketch="http://www.bohemiancoding.com/sketch/ns">
    <!-- Generator: Sketch 3.5.1 (25234) - http://www.bohemiancoding.com/sketch -->
    <title>date</title>
    <desc>Created with Sketch.</desc>
    <defs></defs>
    <g id="Page-1" stroke="none" stroke-width="1" fill="none" fill-rule="evenodd" sketch:type="MSPage">
        <path d="M5.5649,0.5495 L5.5649,0.3405 L0.7559,0.3405 L0.7559,0.6895 L4.9959,0.6895 L2.8559,3.3195 L2.9259,3.4795 L3.0959,3.4795 C4.6659,3.4795 5.3859,4.3595 5.3859,5.2195 C5.3859,6.3905 4.4359,7.0905 2.9859,7.0905 C2.0859,7.0905 1.4959,7.0105 0.7659,6.6805 L0.6259,7.0005 C1.4059,7.3495 2.0159,7.4395 2.9859,7.4395 C4.6459,7.4395 5.7439,6.6105 5.7439,5.2195 C5.7439,4.1395 4.8259,3.2305 3.4059,3.2005 L5.5649,0.5495 Z M9.7539,1.9005 C8.1339,1.9005 6.8249,3.1395 6.8249,4.6695 C6.8249,6.1905 8.1339,7.4295 9.7539,7.4295 C11.3639,7.4295 12.6729,6.1905 12.6729,4.6695 C12.6729,3.1395 11.3639,1.9005 9.7539,1.9005 L9.7539,1.9005 Z M9.7539,7.0805 C8.3339,7.0805 7.1829,5.9995 7.1829,4.6695 C7.1829,3.3295 8.3339,2.2495 9.7539,2.2495 C11.1639,2.2495 12.3149,3.3295 12.3149,4.6695 C12.3149,5.9995 11.1639,7.0805 9.7539,7.0805 L9.7539,7.0805 Z M17.7429,0.3405 L17.3739,0.3405 L17.3739,7.3895 L17.7429,7.3895 L17.7429,0.3405 Z M25.3539,1.9005 C23.7329,1.9005 22.4239,3.1395 22.4239,4.6695 C22.4239,6.1905 23.7329,7.4295 25.3539,7.4295 C26.9639,7.4295 28.2729,6.1905 28.2729,4.6695 C28.2729,3.1395 26.9639,1.9005 25.3539,1.9005 L25.3539,1.9005 Z M25.3539,7.0805 C23.9329,7.0805 22.7829,5.9995 22.7829,4.6695 C22.7829,3.3295 23.9329,2.2495 25.3539,2.2495 C26.7639,2.2495 27.9139,3.3295 27.9139,4.6695 C27.9139,5.9995 26.7639,7.0805 25.3539,7.0805 L25.3539,7.0805 Z M28.5259,0.3405 L28.5259,0.6895 L32.9259,0.6895 L29.4559,7.3895 L29.8659,7.3895 L33.3959,0.5595 L33.3959,0.3405 L28.5259,0.3405 Z M38.2849,0.3405 L37.9159,0.3405 L37.9159,7.3895 L38.2849,7.3895 L38.2849,0.3405 Z M43.6349,7.0405 C45.2049,5.7905 48.1349,5.4695 48.1349,2.8995 C48.1349,1.4295 46.9359,0.3005 45.5549,0.3005 C44.1649,0.3005 42.9759,1.3995 42.9759,2.8895 L42.9759,3.0495 L43.3249,3.0495 L43.3249,2.8995 C43.3249,1.5895 44.3649,0.6595 45.5549,0.6595 C46.7459,0.6595 47.7859,1.6395 47.7859,2.9095 C47.7859,5.4495 44.4349,5.5895 42.9859,7.1795 L42.9859,7.3895 L48.1549,7.3895 L48.1549,7.0405 L43.6349,7.0405 Z M52.1589,1.9005 C50.5389,1.9005 49.2299,3.1395 49.2299,4.6695 C49.2299,6.1905 50.5389,7.4295 52.1589,7.4295 C53.7699,7.4295 55.0789,6.1905 55.0789,4.6695 C55.0789,3.1395 53.7699,1.9005 52.1589,1.9005 L52.1589,1.9005 Z M52.1589,7.0805 C50.7389,7.0805 49.5889,5.9995 49.5889,4.6695 C49.5889,3.3295 50.7389,2.2495 52.1589,2.2495 C53.5699,2.2495 54.7199,3.3295 54.7199,4.6695 C54.7199,5.9995 53.5699,7.0805 52.1589,7.0805 L52.1589,7.0805 Z M57.3479,0.3405 L55.4989,0.7505 L55.5689,1.0805 L57.2689,0.7005 L57.2689,7.3895 L57.6379,7.3895 L57.6379,0.3405 L57.3479,0.3405 Z M62.4429,2.8605 C61.4129,2.8605 60.2029,3.3295 59.9419,4.3495 C59.9319,4.2995 59.9319,4.2695 59.9319,4.2195 C59.9319,1.6495 61.1329,0.6495 62.5129,0.6495 C63.4029,0.6495 64.0039,0.9595 64.5439,1.3195 L64.7239,1.0195 C64.1339,0.6195 63.4829,0.3005 62.5029,0.3005 C60.9329,0.3005 59.5639,1.3795 59.5639,4.2995 C59.5639,6.1195 60.8029,7.4295 62.3029,7.4295 C63.8639,7.4295 65.1219,6.5105 65.1219,5.0895 C65.1219,3.6295 63.8739,2.8605 62.4429,2.8605 L62.4429,2.8605 Z M62.3929,3.1895 C63.6829,3.1895 64.7639,3.8695 64.7639,5.0895 C64.7639,6.2795 63.6629,7.0905 62.3029,7.0905 C61.1029,7.0905 60.0629,5.9695 60.0629,5.0495 C60.0629,3.8695 61.1929,3.1895 62.3929,3.1895 L62.3929,3.1895 Z" id="date" fill="#776C6A" sketch:type="MSShapeGroup"></path>
    </g>
</svg>