<?xml version="1.0" encoding="UTF-8" standalone="no"?>
<svg width="105px" height="11px" viewBox="0 0 105 11" version="1.1" xmlns="http://www.w3.org/2000/svg" xmlns:xlink="http://www.w3.org/1999/xlink" xmlns:sketch="http://www.bohemiancoding.com/sketch/ns">
    <!-- Generator: Sketch 3.5.1 (25234) - http://www.bohemiancoding.com/sketch -->
    <title>eva&amp;micele</title>
    <desc>Created with Sketch.</desc>
    <defs></defs>
    <g id="Page-1" stroke="none" stroke-width="1" fill="none" fill-rule="evenodd" sketch:type="MSPage">
        <path d="M0.5345,9.5528 L0.5345,5.7808 L5.2795,5.7808 L5.2795,5.3408 L0.5345,5.3408 L0.5345,1.2958 L6.0855,1.2958 L6.0855,0.8428 L0.0555,0.8428 L0.0555,10.0058 L6.3585,10.0058 L6.3585,9.5528 L0.5345,9.5528 Z M13.3075,9.2008 L9.4335,0.8428 L8.9005,0.8428 L13.1645,10.0058 L13.4505,10.0058 L17.7145,0.8428 L17.1945,0.8428 L13.3075,9.2008 Z M26.8675,10.0058 L27.3745,10.0058 L23.2535,0.8428 L22.8895,0.8428 L18.7555,10.0058 L19.2755,10.0058 L20.4455,7.3538 L25.6845,7.3538 L26.8675,10.0058 Z M23.0585,1.4278 L25.5155,6.9398 L20.6275,6.9398 L23.0585,1.4278 Z M42.4795,6.1068 C42.1805,6.5618 41.6085,7.4858 40.8545,8.2398 L38.0605,5.5348 C40.1285,4.8328 40.5035,3.7408 40.5035,2.8828 C40.5035,1.8158 39.6475,0.8428 38.2035,0.8428 C36.8905,0.8428 36.0205,1.8678 36.0205,2.9478 C36.0205,3.9098 36.4865,4.5598 37.3065,5.3788 C35.7335,5.9898 35.1755,6.7958 35.1755,7.8108 C35.1755,8.9548 36.0855,10.0448 38.2685,10.0448 C39.2575,10.0448 40.1285,9.5138 40.8545,8.8378 L42.1025,10.0318 L42.4015,9.7348 L41.1535,8.5388 C41.9725,7.6938 42.5705,6.7308 42.8435,6.2888 L42.4795,6.1068 Z M38.2035,1.2568 C39.4915,1.2568 40.0635,2.0768 40.0635,2.9348 C40.0635,3.7668 39.6345,4.5728 37.7355,5.2228 C36.9685,4.4428 36.4605,3.8708 36.4605,2.9608 C36.4605,2.1158 37.1375,1.2568 38.2035,1.2568 L38.2035,1.2568 Z M38.2685,9.6048 C36.4085,9.6048 35.6675,8.6948 35.6675,7.7978 C35.6675,6.9648 36.1885,6.2498 37.6185,5.7038 L40.5555,8.5388 C39.9075,9.1498 39.1275,9.6048 38.2685,9.6048 L38.2685,9.6048 Z M59.8615,0.8428 L55.7405,7.5758 L51.6195,0.8428 L51.2955,0.8428 L51.2955,10.0058 L51.7745,10.0058 L51.7745,1.9608 L55.7405,8.4598 L59.6935,1.9608 L59.6935,10.0058 L60.1725,10.0058 L60.1725,0.8428 L59.8615,0.8428 Z M64.5795,0.8428 L64.1005,0.8428 L64.1005,10.0058 L64.5795,10.0058 L64.5795,0.8428 Z M72.7305,9.5788 C70.3645,9.5788 68.4405,7.7328 68.4405,5.4308 C68.4405,3.1298 70.3645,1.2698 72.7305,1.2698 C74.0955,1.2698 75.3045,1.9068 76.0845,2.8568 L76.4615,2.5318 C75.5775,1.4778 74.2385,0.7908 72.7305,0.7908 C70.0915,0.7908 67.9355,2.8828 67.9355,5.4308 C67.9355,7.9798 70.0915,10.0578 72.7305,10.0578 C74.2385,10.0578 75.5775,9.3838 76.4615,8.3308 L76.0845,8.0058 C75.3045,8.9548 74.0955,9.5788 72.7305,9.5788 L72.7305,9.5788 Z M80.1505,9.5528 L80.1505,5.7808 L84.8955,5.7808 L84.8955,5.3408 L80.1505,5.3408 L80.1505,1.2958 L85.7015,1.2958 L85.7015,0.8428 L79.6715,0.8428 L79.6715,10.0058 L85.9745,10.0058 L85.9745,9.5528 L80.1505,9.5528 Z M89.4715,9.5658 L89.4715,0.8428 L88.9925,0.8428 L88.9925,10.0058 L94.8665,10.0058 L94.8665,9.5658 L89.4715,9.5658 Z M98.2915,9.5528 L98.2915,5.7808 L103.0365,5.7808 L103.0365,5.3408 L98.2915,5.3408 L98.2915,1.2958 L103.8425,1.2958 L103.8425,0.8428 L97.8125,0.8428 L97.8125,10.0058 L104.1155,10.0058 L104.1155,9.5528 L98.2915,9.5528 Z" id="eva&amp;micele" fill="#776C6A" sketch:type="MSShapeGroup"></path>
    </g>
</svg>